<svg xmlns="http://www.w3.org/2000/svg" viewBox="0 0 137.73 137.75"><path d="M122.17,71.78S98.83,58.87,76.68,68.25,53.34,80,38.21,83.43c0,0,46.66,32.63,86.29-2.32,0,0-43.15,60.67-106.14-3.52C60.65,75.37,79.51,40.34,122.17,71.78Z" style="fill:#fff;fill-rule:evenodd"/><rect width="137.73" height="137.75" style="fill:none;opacity:0.1"/><path d="M120.57,57.88c-3.19-5.14-8.75-12.23-18.22-19.93-18.65-15.17-49-7-66.5,11.65C25.35,60.81,19.07,65.29,15.71,67.07l2.1-.11c22.63-1.2,38.73-14,59.78-17.88C93.6,46.12,107.48,50,120.57,57.88Z" style="fill:#fff;fill-rule:evenodd"/><path d="M122.49,78.22s-12.84-8.79-30.18-2.17C64.5,87.5,54,85.32,54,85.32s20.59,3.62,37.53-4.27S121.41,77.59,122.49,78.22Z" style="fill:#fff;fill-rule:evenodd"/></svg>