<svg xmlns="http://www.w3.org/2000/svg" viewBox="0 0 404.57 77.7"><path d="M90,47.14s-10.8-7.44-25.4-1.86c-23.43,9.65-32.3,7.82-32.3,7.82s17.34,3,31.62-3.58S89.08,46.6,90,47.14Z" style="fill:#fcb13c;fill-rule:evenodd"/><path d="M89.73,41.69s-19.68-10.86-38.37-3S31.72,48.56,19,51.51c0,0,39.34,27.54,72.73-2,0,0-36.37,51.13-89.47-2.95C37.89,44.7,53.77,15.18,89.73,41.69Z" style="fill:#f2684b;fill-rule:evenodd"/><path d="M88.38,30A69.31,69.31,0,0,0,73,13.18C57.3.43,31.72,7.26,17,23,8.13,32.45,2.84,36.25,0,37.73l1.77-.1c19.06-1,32.67-11.79,50.38-15.07C65.66,20.09,77.34,23.31,88.38,30Z" style="fill:#fcb13c;fill-rule:evenodd"/><text transform="translate(114.09 31.41)" style="font-size:36.36716079711914px;fill:#231f20;stroke:#231f20;stroke-miterlimit:10;font-family:Montserrat-ExtraBold, Montserrat;font-weight:800">Garuda <tspan x="150.92" y="0" style="letter-spacing:-0.004994633098066562em">A</tspan><tspan x="179.32" y="0">dmin </tspan><tspan x="0" y="36.37">Kit</tspan></text></svg>