<svg xmlns="http://www.w3.org/2000/svg" viewBox="0 0 391.36 69.29"><path d="M90,46.68s-10.8-7.44-25.4-1.86c-23.43,9.65-32.3,7.82-32.3,7.82s17.34,3,31.62-3.58S89.08,46.14,90,46.68Z" transform="translate(0 -1.67)" style="fill:#fff;fill-rule:evenodd"/><path d="M89.73,41.23s-19.68-10.87-38.37-3S31.72,48.1,19,51.05c0,0,39.34,27.53,72.73-2,0,0-36.37,51.12-89.47-3C37.89,44.24,53.77,14.72,89.73,41.23Z" transform="translate(0 -1.67)" style="fill:#fff;fill-rule:evenodd"/><path d="M88.38,29.52A69.31,69.31,0,0,0,73,12.72C57.3,0,31.72,6.8,17,22.54,8.13,32,2.84,35.79,0,37.27l1.77-.1c19.06-1,32.67-11.79,50.38-15.07C65.66,19.63,77.34,22.85,88.38,29.52Z" transform="translate(0 -1.67)" style="fill:#fff;fill-rule:evenodd"/><path d="M133.67,17.64H140V28.18a16.21,16.21,0,0,1-5,2.4,19.87,19.87,0,0,1-5.67.84,15.12,15.12,0,0,1-7.2-1.69,12.6,12.6,0,0,1-5-4.71,13,13,0,0,1-1.82-6.84,13,13,0,0,1,1.82-6.83,12.48,12.48,0,0,1,5-4.71A15.54,15.54,0,0,1,129.48,5a16.26,16.26,0,0,1,6.4,1.2,12.29,12.29,0,0,1,4.73,3.45L136,13.75a8.08,8.08,0,0,0-6.18-2.84,7.2,7.2,0,0,0-5.28,2,7.13,7.13,0,0,0-2,5.29,7.79,7.79,0,0,0,.91,3.77A6.59,6.59,0,0,0,126,24.53a7.44,7.44,0,0,0,3.74.93,9.2,9.2,0,0,0,3.9-.84Z" transform="translate(0 -1.67)" style="fill:#fff"/><path d="M160.18,13.11q2.58,2.23,2.58,6.86V30.91h-6.44V28.37q-1.48,2.86-5.82,2.87a9.14,9.14,0,0,1-4-.8A5.84,5.84,0,0,1,144,28.27a5.68,5.68,0,0,1-.85-3.1,5,5,0,0,1,2.14-4.35q2.14-1.55,6.62-1.55h3.93c-.12-2.08-1.52-3.12-4.18-3.12a9.71,9.71,0,0,0-2.88.45,7.66,7.66,0,0,0-2.47,1.26L144,13.17a12.81,12.81,0,0,1,4-1.7,18.89,18.89,0,0,1,4.71-.6C156,10.87,158.45,11.62,160.18,13.11Zm-5.64,13.18a3.18,3.18,0,0,0,1.31-1.71v-1.7h-3c-2,0-3,.66-3,2a1.75,1.75,0,0,0,.69,1.45,3,3,0,0,0,1.89.55A3.83,3.83,0,0,0,154.54,26.29Z" transform="translate(0 -1.67)" style="fill:#fff"/><path d="M176.45,11.55a10.39,10.39,0,0,1,3.87-.68v6.22a14.84,14.84,0,0,0-1.56-.11,4.8,4.8,0,0,0-3.47,1.2A4.87,4.87,0,0,0,174,21.86v9.05h-6.91V11.2h6.58v2.37A6.46,6.46,0,0,1,176.45,11.55Z" transform="translate(0 -1.67)" style="fill:#fff"/><path d="M204,11.2V30.91h-6.58V28.8a7.07,7.07,0,0,1-2.62,1.82,8.61,8.61,0,0,1-3.24.62A8.26,8.26,0,0,1,185.43,29q-2.27-2.25-2.27-6.76v-11h6.91v9.89a5.07,5.07,0,0,0,.84,3.24,3,3,0,0,0,2.43,1A3.44,3.44,0,0,0,196,24.2a5.09,5.09,0,0,0,1-3.51V11.2Z" transform="translate(0 -1.67)" style="fill:#fff"/><path d="M229.35,3.93v27h-6.59V29A7.14,7.14,0,0,1,217,31.24,9.78,9.78,0,0,1,212.07,30a9,9,0,0,1-3.51-3.58A10.9,10.9,0,0,1,207.27,21a10.79,10.79,0,0,1,1.29-5.36,9,9,0,0,1,3.51-3.55A10,10,0,0,1,217,10.87a7.16,7.16,0,0,1,5.46,2v-9Zm-8,20.56A4.87,4.87,0,0,0,222.54,21a4.87,4.87,0,0,0-1.14-3.42,3.86,3.86,0,0,0-3-1.23,3.94,3.94,0,0,0-3,1.23A4.84,4.84,0,0,0,214.29,21a4.92,4.92,0,0,0,1.16,3.47,3.89,3.89,0,0,0,3,1.26A3.84,3.84,0,0,0,221.38,24.49Z" transform="translate(0 -1.67)" style="fill:#fff"/><path d="M249.67,13.11q2.6,2.23,2.59,6.86V30.91h-6.44V28.37q-1.48,2.86-5.82,2.87a9.11,9.11,0,0,1-4-.8,5.84,5.84,0,0,1-2.53-2.17,5.69,5.69,0,0,1-.86-3.1,5.05,5.05,0,0,1,2.15-4.35q2.14-1.55,6.62-1.55h3.93q-.18-3.12-4.19-3.12a9.69,9.69,0,0,0-2.87.45,7.66,7.66,0,0,0-2.47,1.26l-2.33-4.69a12.85,12.85,0,0,1,4-1.7,19,19,0,0,1,4.71-.6C245.46,10.87,248,11.62,249.67,13.11ZM244,26.29a3.23,3.23,0,0,0,1.31-1.71v-1.7h-3c-2,0-3,.66-3,2a1.75,1.75,0,0,0,.69,1.45,3,3,0,0,0,1.89.55A3.83,3.83,0,0,0,244,26.29Z" transform="translate(0 -1.67)" style="fill:#fff"/><path d="M284.59,26H273.82l-2,4.94h-7.35L275.71,5.46h7.09l11.28,25.45h-7.49Zm-2.11-5.31-3.28-8.15-3.27,8.15Z" transform="translate(0 -1.67)" style="fill:#fff"/><path d="M316.55,3.93v27H310V29a7.15,7.15,0,0,1-5.78,2.29A9.76,9.76,0,0,1,299.28,30a9,9,0,0,1-3.51-3.58A10.9,10.9,0,0,1,294.48,21a10.79,10.79,0,0,1,1.29-5.36,9,9,0,0,1,3.51-3.55,10,10,0,0,1,4.91-1.24,7.13,7.13,0,0,1,5.45,2v-9Zm-8,20.56A4.92,4.92,0,0,0,309.75,21a4.87,4.87,0,0,0-1.14-3.42,4.21,4.21,0,0,0-5.95,0A4.79,4.79,0,0,0,301.5,21a4.87,4.87,0,0,0,1.16,3.47,4.12,4.12,0,0,0,5.93,0Z" transform="translate(0 -1.67)" style="fill:#fff"/><path d="M352.46,13.06c1.45,1.45,2.17,3.65,2.17,6.58V30.91h-6.91V20.77a4.9,4.9,0,0,0-.78-3.06,2.68,2.68,0,0,0-2.2-1,3.14,3.14,0,0,0-2.51,1.09,5,5,0,0,0-1,3.31v9.78h-6.91V20.77c0-2.7-1-4-3-4a3.19,3.19,0,0,0-2.55,1.09,5,5,0,0,0-.94,3.31v9.78H321V11.2h6.58v2.07a6.92,6.92,0,0,1,2.6-1.8,8.83,8.83,0,0,1,3.29-.6,8.67,8.67,0,0,1,3.71.77A6.33,6.33,0,0,1,339.83,14a7.66,7.66,0,0,1,2.94-2.29,9.47,9.47,0,0,1,3.89-.8A7.77,7.77,0,0,1,352.46,13.06Z" transform="translate(0 -1.67)" style="fill:#fff"/><path d="M359.39,8a3.39,3.39,0,0,1-1.16-2.61,3.39,3.39,0,0,1,1.16-2.62,4.37,4.37,0,0,1,3.06-1.06,4.55,4.55,0,0,1,3.05,1,3.22,3.22,0,0,1,1.16,2.57A3.52,3.52,0,0,1,365.5,8a4.91,4.91,0,0,1-6.11,0ZM359,11.2h6.91V30.91H359Z" transform="translate(0 -1.67)" style="fill:#fff"/><path d="M389.12,13.06c1.49,1.45,2.24,3.65,2.24,6.58V30.91h-6.91V20.77c0-2.7-1.08-4-3.24-4a3.69,3.69,0,0,0-2.85,1.16,5,5,0,0,0-1.08,3.49v9.53h-6.91V11.2H377v2.15a7.69,7.69,0,0,1,2.76-1.84,9.46,9.46,0,0,1,3.49-.64A8.08,8.08,0,0,1,389.12,13.06Z" transform="translate(0 -1.67)" style="fill:#fff"/><path d="M126.43,58l-2.69,2.87v6.37h-7.13V41.82h7.13V52.4l9.85-10.58h7.93l-10.4,11.27,10.95,14.19H133.7Z" transform="translate(0 -1.67)" style="fill:#fff"/><path d="M143.67,44.33a3.52,3.52,0,0,1,0-5.24A4.36,4.36,0,0,1,146.72,38a4.53,4.53,0,0,1,3.06,1,3.24,3.24,0,0,1,1.16,2.56,3.54,3.54,0,0,1-1.16,2.71,4.9,4.9,0,0,1-6.11,0Zm-.4,3.24h6.91V67.28h-6.91Z" transform="translate(0 -1.67)" style="fill:#fff"/><path d="M168.25,66.48a6.91,6.91,0,0,1-2.13.83,11.37,11.37,0,0,1-2.67.3,8.45,8.45,0,0,1-5.93-1.9,7.24,7.24,0,0,1-2.07-5.63V53.46h-2.87V48.29h2.87V43.17h6.91v5.12h4.51v5.17h-4.51V60a2.35,2.35,0,0,0,.56,1.66,2,2,0,0,0,1.51.6,3.69,3.69,0,0,0,2.11-.62Z" transform="translate(0 -1.67)" style="fill:#fff"/></svg>