<svg xmlns="http://www.w3.org/2000/svg" viewBox="0 0 404.07 76.7"><path d="M90,46.64s-10.8-7.44-25.4-1.86c-23.43,9.65-32.3,7.82-32.3,7.82s17.34,3,31.62-3.58S89.08,46.1,90,46.64Z" style="fill:#fff;fill-rule:evenodd"/><path d="M89.73,41.19s-19.68-10.86-38.37-3S31.72,48.06,19,51c0,0,39.34,27.54,72.73-2,0,0-36.37,51.13-89.47-2.95C37.89,44.2,53.77,14.68,89.73,41.19Z" style="fill:#fff;fill-rule:evenodd"/><path d="M88.38,29.48A69.31,69.31,0,0,0,73,12.68C57.3-.07,31.72,6.76,17,22.5,8.13,32,2.84,35.75,0,37.23l1.77-.1c19.06-1,32.67-11.79,50.38-15.07C65.66,19.59,77.34,22.81,88.38,29.48Z" style="fill:#fff;fill-rule:evenodd"/><text transform="translate(114.09 30.91)" style="font-size:36.36716079711914px;fill:#fff;font-family:Montserrat-ExtraBold, Montserrat;font-weight:800">Garuda <tspan x="150.92" y="0" style="letter-spacing:-0.004994633098066562em">A</tspan><tspan x="179.32" y="0">dmin </tspan><tspan x="0" y="36.37">Kit</tspan></text></svg>