<svg xmlns="http://www.w3.org/2000/svg" viewBox="0 0 108.78 77.03"><path d="M106.46,41.75S83.12,28.83,61,38.21,37.63,49.91,22.5,53.4c0,0,46.66,32.63,86.28-2.33,0,0-43.15,60.68-106.14-3.51C44.94,45.33,63.79,10.3,106.46,41.75Z" style="fill:#231f20;fill-rule:evenodd"/><path d="M104.86,27.84c-3.2-5.13-8.75-12.23-18.23-19.93C68-7.26,37.63.89,20.14,19.56,9.64,30.77,3.35,35.25,0,37l2.1-.11C24.72,35.72,40.83,23,61.88,19,77.88,16.08,91.77,19.93,104.86,27.84Z" style="fill:#231f20;fill-rule:evenodd"/><path d="M106.77,48.19S93.94,39.39,76.6,46c-27.81,11.45-38.34,9.27-38.34,9.27S58.84,58.9,75.78,51,105.7,47.56,106.77,48.19Z" style="fill:#231f20;fill-rule:evenodd"/></svg>