<svg xmlns="http://www.w3.org/2000/svg" viewBox="0 0 544.7 77.03"><path d="M106.46,41.74S83.14,28.85,61,38.22,37.62,49.9,22.5,53.42c0,0,46.7,32.63,86.27-2.36,0,0-43.1,60.68-106.11-3.48C45,45.32,63.78,10.32,106.46,41.74Z" style="fill:#f2684b;fill-rule:evenodd"/><path d="M104.86,27.84c-3.19-5.12-8.79-12.21-18.24-19.94C68-7.26,37.62.9,20.15,19.58,9.66,30.79,3.34,35.27,0,37l2.08-.09c22.65-1.21,38.78-14,59.81-17.86C77.88,16.11,91.78,19.93,104.86,27.84Z" style="fill:#fcb13c;fill-rule:evenodd"/><path d="M106.75,48.21S93.91,39.37,76.57,46c-27.76,11.4-38.32,9.28-38.32,9.28S58.86,58.87,75.8,51,105.69,47.58,106.75,48.21Z" style="fill:#fcb13c;fill-rule:evenodd"/><path d="M154.38,24.84H162V37.52a20,20,0,0,1-6,2.92,25.24,25.24,0,0,1-6.84,1,18.36,18.36,0,0,1-8.6-2.06,14.8,14.8,0,0,1-6-5.66,16,16,0,0,1-2.22-8.2,15.82,15.82,0,0,1,2.22-8.23,15.57,15.57,0,0,1,6.09-5.69,18.77,18.77,0,0,1,8.76-2A19.18,19.18,0,0,1,157,11.07a13.78,13.78,0,0,1,5.65,4.14l-5.46,5a9.77,9.77,0,0,0-7.43-3.35,8.38,8.38,0,0,0-6.3,2.36A8.5,8.5,0,0,0,141,25.54,9.4,9.4,0,0,0,142.08,30a8.59,8.59,0,0,0,3.11,3.14,8.8,8.8,0,0,0,4.46,1.09,11.92,11.92,0,0,0,4.73-1V24.84Zm22.82-8.12c3.93,0,6.94.89,9,2.71s3,4.53,3,8.22V40.82h-7.72V37.73c-1.23,2.31-3.54,3.44-7,3.44a11,11,0,0,1-4.77-.94,6.42,6.42,0,0,1-3-2.6,6.75,6.75,0,0,1-1-3.73,6.08,6.08,0,0,1,2.57-5.22c1.72-1.24,4.32-1.86,7.91-1.86H181c-.14-2.46-1.77-3.75-5-3.75a11.73,11.73,0,0,0-3.46.54,9.44,9.44,0,0,0-3,1.48l-2.81-5.61a18.27,18.27,0,0,1,4.77-2.06,25.12,25.12,0,0,1,5.66-.7ZM176.9,36a5,5,0,0,0,2.55-.69A3.85,3.85,0,0,0,181,33.2v-2h-3.59c-2.41,0-3.65.73-3.65,2.36a2.35,2.35,0,0,0,.85,1.77,3.75,3.75,0,0,0,2.31.64Zm25.63-16a6.81,6.81,0,0,1,3.24-2.41,11.45,11.45,0,0,1,4.67-.85V24.2c-.78-.05-1.43-.09-1.88-.09a6,6,0,0,0-4.21,1.43A6.19,6.19,0,0,0,202.87,30V40.82H194.6V17.12h7.93V20Zm36.29-2.86v23.7h-7.93V38.27a9.26,9.26,0,0,1-3.09,2.22,12.22,12.22,0,0,1-3.94.68,10.13,10.13,0,0,1-7.32-2.66c-1.77-1.87-2.76-4.53-2.76-8.12V17.12h8.31V29a6.46,6.46,0,0,0,1,3.94,3.6,3.6,0,0,0,3,1.18,4.23,4.23,0,0,0,3.2-1.32,6.56,6.56,0,0,0,1.23-4.23V17.12ZM269.3,8.38V40.82h-7.91V38.46c-1.58,1.82-3.94,2.71-7,2.71a12.23,12.23,0,0,1-5.85-1.43,11,11,0,0,1-4.23-4.37,12.93,12.93,0,0,1-1.53-6.45,13.21,13.21,0,0,1,1.53-6.44,10.82,10.82,0,0,1,4.23-4.28,12.5,12.5,0,0,1,5.85-1.48A8.73,8.73,0,0,1,261,19.19V8.38ZM256.17,34.63a4.75,4.75,0,0,0,3.54-1.53,5.79,5.79,0,0,0,1.38-4.18,5.73,5.73,0,0,0-1.38-4.08,4.5,4.5,0,0,0-3.54-1.52,4.83,4.83,0,0,0-3.63,1.52,6,6,0,0,0-1.34,4.08,6,6,0,0,0,1.34,4.18,5,5,0,0,0,3.63,1.53Zm28.48-17.91c3.92,0,6.92.89,9,2.71s3.1,4.53,3.1,8.22V40.82H289V37.73c-1.23,2.31-3.54,3.44-7,3.44a11,11,0,0,1-4.77-.94,6.47,6.47,0,0,1-3-2.6,6.82,6.82,0,0,1-1-3.73,6.11,6.11,0,0,1,2.55-5.22c1.73-1.24,4.33-1.86,7.93-1.86h4.71c-.15-2.46-1.77-3.75-5-3.75a11.56,11.56,0,0,0-3.45.54,9,9,0,0,0-3,1.48l-2.85-5.61A19.35,19.35,0,0,1,279,17.42a24.69,24.69,0,0,1,5.65-.7ZM284.36,36a5,5,0,0,0,2.55-.69,3.84,3.84,0,0,0,1.52-2.07v-2h-3.59c-2.41,0-3.64.73-3.64,2.36a2.4,2.4,0,0,0,.83,1.77,3.81,3.81,0,0,0,2.33.64Zm51.23-1.09H322.66l-2.36,6h-8.9L325,10.23h8.47L347,40.82h-9l-2.36-6ZM333,28.49,329.1,18.7l-3.89,9.79ZM374,8.38V40.82h-7.91V38.46c-1.53,1.82-3.94,2.71-7,2.71a12.19,12.19,0,0,1-5.84-1.43A11.08,11.08,0,0,1,349,35.37a13,13,0,0,1-1.52-6.45A13.32,13.32,0,0,1,349,22.48a10.91,10.91,0,0,1,4.24-4.28,12.46,12.46,0,0,1,5.84-1.48,8.75,8.75,0,0,1,6.6,2.47V8.38ZM360.92,34.63a4.71,4.71,0,0,0,3.48-1.53,5.75,5.75,0,0,0,1.39-4.18,5.69,5.69,0,0,0-1.39-4.08,4.46,4.46,0,0,0-3.48-1.52,4.75,4.75,0,0,0-3.65,1.52,5.73,5.73,0,0,0-1.37,4.08,5.79,5.79,0,0,0,1.37,4.18,4.86,4.86,0,0,0,3.65,1.53ZM410.1,16.72a9.46,9.46,0,0,1,7,2.62c1.72,1.82,2.57,4.43,2.57,7.91V40.82h-8.31V28.62a5.59,5.59,0,0,0-.89-3.62,3.13,3.13,0,0,0-2.7-1.23,3.85,3.85,0,0,0-3,1.32,5.85,5.85,0,0,0-1.13,4V40.82H395.3V28.62c0-3.19-1.15-4.85-3.56-4.85a3.9,3.9,0,0,0-3.08,1.32,6.13,6.13,0,0,0-1.1,4V40.82h-8.31V17.12h7.93v2.52a8.46,8.46,0,0,1,3.09-2.22,11.56,11.56,0,0,1,8.41.19,8,8,0,0,1,3.19,2.86,9.59,9.59,0,0,1,3.51-2.76,11.56,11.56,0,0,1,4.72-1Zm14.85.4h8.26v23.7H425V17.12Zm4.13-2.6a5.17,5.17,0,0,1-3.7-1.28,4.15,4.15,0,0,1,0-6.25,5.4,5.4,0,0,1,3.7-1.28,5.14,5.14,0,0,1,3.64,1.18,3.77,3.77,0,0,1,1.42,3.1,4.05,4.05,0,0,1-1.42,3.25,5,5,0,0,1-3.64,1.28ZM454,16.72A9.71,9.71,0,0,1,461,19.34c1.82,1.82,2.71,4.43,2.71,7.91V40.82h-8.31V28.62c0-3.19-1.27-4.85-3.84-4.85a4.33,4.33,0,0,0-3.43,1.42,6,6,0,0,0-1.28,4.18V40.82h-8.31V17.12h7.91v2.6a9.31,9.31,0,0,1,3.35-2.2,10.3,10.3,0,0,1,4.12-.8Zm39.94,13-3.24,3.43v7.67h-8.56V10.23h8.56v12.7l11.79-12.7h9.49L499.49,23.77l13.14,17.05H502.55l-8.66-11.1Zm20.21-12.6h8.31v23.7H514.1V17.12Zm4.18-2.6a5.31,5.31,0,0,1-3.73-1.28,4.21,4.21,0,0,1,0-6.25,5.55,5.55,0,0,1,3.73-1.28,5.17,5.17,0,0,1,3.65,1.18A3.85,3.85,0,0,1,523.3,10a4.14,4.14,0,0,1-1.37,3.25,5,5,0,0,1-3.65,1.28ZM544.1,39.85a9.42,9.42,0,0,1-2.5,1,16.53,16.53,0,0,1-3.3.3c-3,0-5.41-.73-7.09-2.21s-2.45-3.8-2.45-6.8v-8h-3.5V18h3.5V11.92H537V18h5.46V24.2H537v7.88a2.67,2.67,0,0,0,.64,2,2.39,2.39,0,0,0,1.87.79A4.39,4.39,0,0,0,542,34Z" style="fill:#231f20;fill-rule:evenodd"/><path d="M154.38,24.84H162V37.52a19.9,19.9,0,0,1-6,2.92,25.11,25.11,0,0,1-6.83,1,18.43,18.43,0,0,1-8.61-2.06,14.83,14.83,0,0,1-6-5.66,16,16,0,0,1-2.22-8.2,15.82,15.82,0,0,1,2.22-8.23,15.57,15.57,0,0,1,6.09-5.69,18.77,18.77,0,0,1,8.76-2A19.18,19.18,0,0,1,157,11.07a13.78,13.78,0,0,1,5.65,4.14l-5.46,5a9.77,9.77,0,0,0-7.43-3.35,8.38,8.38,0,0,0-6.3,2.36A8.5,8.5,0,0,0,141,25.54,9.4,9.4,0,0,0,142.08,30a8.59,8.59,0,0,0,3.11,3.14,8.8,8.8,0,0,0,4.46,1.09,11.92,11.92,0,0,0,4.73-1Z" style="fill:none;stroke:#231f20;stroke-miterlimit:10"/><path d="M177.2,16.72c3.93,0,6.94.89,9,2.71s3,4.53,3,8.22V40.82h-7.72V37.73c-1.23,2.31-3.54,3.44-7,3.44a11,11,0,0,1-4.77-.94,6.42,6.42,0,0,1-3-2.6,6.75,6.75,0,0,1-1-3.73,6.08,6.08,0,0,1,2.57-5.22c1.72-1.24,4.32-1.86,7.91-1.86H181c-.14-2.46-1.77-3.75-5-3.75a11.73,11.73,0,0,0-3.46.54,9.44,9.44,0,0,0-3,1.48l-2.81-5.61a18.27,18.27,0,0,1,4.77-2.06A25.12,25.12,0,0,1,177.2,16.72Z" style="fill:none;stroke:#231f20;stroke-miterlimit:10"/><path d="M176.9,36a5,5,0,0,0,2.55-.69A3.85,3.85,0,0,0,181,33.2v-2h-3.59c-2.41,0-3.65.73-3.65,2.36a2.35,2.35,0,0,0,.85,1.77A3.75,3.75,0,0,0,176.9,36Z" style="fill:none;stroke:#231f20;stroke-miterlimit:10"/><path d="M202.53,20a6.81,6.81,0,0,1,3.24-2.41,11.45,11.45,0,0,1,4.67-.85V24.2c-.78-.05-1.43-.09-1.88-.09a6,6,0,0,0-4.21,1.43A6.19,6.19,0,0,0,202.87,30V40.82H194.6V17.12h7.93Z" style="fill:none;stroke:#231f20;stroke-miterlimit:10"/><path d="M238.82,17.12v23.7h-7.93V38.27a9.26,9.26,0,0,1-3.09,2.22,12.22,12.22,0,0,1-3.94.68,10.13,10.13,0,0,1-7.32-2.66c-1.77-1.87-2.76-4.53-2.76-8.12V17.12h8.31V29a6.46,6.46,0,0,0,1,3.94,3.6,3.6,0,0,0,3,1.18,4.23,4.23,0,0,0,3.2-1.32,6.56,6.56,0,0,0,1.23-4.23V17.12Z" style="fill:none;stroke:#231f20;stroke-miterlimit:10"/><path d="M269.3,8.38V40.82h-7.91V38.46c-1.58,1.82-3.94,2.71-7,2.71a12.23,12.23,0,0,1-5.85-1.43,11,11,0,0,1-4.23-4.37,12.93,12.93,0,0,1-1.53-6.45,13.21,13.21,0,0,1,1.53-6.44,10.82,10.82,0,0,1,4.23-4.28,12.5,12.5,0,0,1,5.85-1.48A8.73,8.73,0,0,1,261,19.19V8.38Z" style="fill:none;stroke:#231f20;stroke-miterlimit:10"/><path d="M256.17,34.63a4.75,4.75,0,0,0,3.54-1.53,5.79,5.79,0,0,0,1.38-4.18,5.73,5.73,0,0,0-1.38-4.08,4.5,4.5,0,0,0-3.54-1.52,4.83,4.83,0,0,0-3.63,1.52,6,6,0,0,0-1.34,4.08,6,6,0,0,0,1.34,4.18A5,5,0,0,0,256.17,34.63Z" style="fill:none;stroke:#231f20;stroke-miterlimit:10"/><path d="M284.65,16.72c3.92,0,6.92.89,9,2.71s3.1,4.53,3.1,8.22V40.82H289V37.73c-1.23,2.31-3.54,3.44-7,3.44a11,11,0,0,1-4.77-.94,6.47,6.47,0,0,1-3-2.6,6.82,6.82,0,0,1-1-3.73,6.11,6.11,0,0,1,2.55-5.22c1.73-1.24,4.33-1.86,7.93-1.86h4.71c-.15-2.46-1.77-3.75-5-3.75a11.56,11.56,0,0,0-3.45.54,9,9,0,0,0-3,1.48l-2.85-5.61A19.35,19.35,0,0,1,279,17.42,24.69,24.69,0,0,1,284.65,16.72Z" style="fill:none;stroke:#231f20;stroke-miterlimit:10"/><path d="M284.36,36a5,5,0,0,0,2.55-.69,3.84,3.84,0,0,0,1.52-2.07v-2h-3.59c-2.41,0-3.64.73-3.64,2.36a2.4,2.4,0,0,0,.83,1.77A3.81,3.81,0,0,0,284.36,36Z" style="fill:none;stroke:#231f20;stroke-miterlimit:10"/><polygon points="335.59 34.87 322.66 34.87 320.3 40.82 311.4 40.82 324.97 10.23 333.44 10.23 346.95 40.82 337.95 40.82 335.59 34.87" style="fill:none;stroke:#231f20;stroke-miterlimit:10"/><polygon points="333.04 28.48 329.1 18.7 325.21 28.48 333.04 28.48" style="fill:none;stroke:#231f20;stroke-miterlimit:10"/><path d="M374,8.38V40.82h-7.91V38.46c-1.53,1.82-3.94,2.71-7,2.71a12.19,12.19,0,0,1-5.84-1.43A11.08,11.08,0,0,1,349,35.37a13,13,0,0,1-1.52-6.45A13.32,13.32,0,0,1,349,22.48a10.91,10.91,0,0,1,4.24-4.28,12.46,12.46,0,0,1,5.84-1.48,8.75,8.75,0,0,1,6.6,2.47V8.38Z" style="fill:none;stroke:#231f20;stroke-miterlimit:10"/><path d="M360.92,34.63a4.71,4.71,0,0,0,3.48-1.53,5.75,5.75,0,0,0,1.39-4.18,5.69,5.69,0,0,0-1.39-4.08,4.46,4.46,0,0,0-3.48-1.52,4.75,4.75,0,0,0-3.65,1.52,5.73,5.73,0,0,0-1.37,4.08,5.79,5.79,0,0,0,1.37,4.18A4.86,4.86,0,0,0,360.92,34.63Z" style="fill:none;stroke:#231f20;stroke-miterlimit:10"/><path d="M410.1,16.72a9.46,9.46,0,0,1,7,2.62c1.72,1.82,2.57,4.43,2.57,7.91V40.82h-8.31V28.62a5.59,5.59,0,0,0-.89-3.62,3.13,3.13,0,0,0-2.7-1.23,3.85,3.85,0,0,0-3,1.32,5.85,5.85,0,0,0-1.13,4V40.82H395.3V28.62c0-3.19-1.15-4.85-3.56-4.85a3.9,3.9,0,0,0-3.08,1.32,6.13,6.13,0,0,0-1.1,4V40.82h-8.31V17.12h7.93v2.52a8.46,8.46,0,0,1,3.09-2.22,11.56,11.56,0,0,1,8.41.19,8,8,0,0,1,3.19,2.86,9.59,9.59,0,0,1,3.51-2.76A11.56,11.56,0,0,1,410.1,16.72Z" style="fill:none;stroke:#231f20;stroke-miterlimit:10"/><rect x="424.95" y="17.12" width="8.26" height="23.7" style="fill:none;stroke:#231f20;stroke-miterlimit:10"/><path d="M429.08,14.52a5.17,5.17,0,0,1-3.7-1.28,4.15,4.15,0,0,1,0-6.25,5.4,5.4,0,0,1,3.7-1.28,5.14,5.14,0,0,1,3.64,1.18,3.77,3.77,0,0,1,1.42,3.1,4.05,4.05,0,0,1-1.42,3.25A5,5,0,0,1,429.08,14.52Z" style="fill:none;stroke:#231f20;stroke-miterlimit:10"/><path d="M454,16.72A9.71,9.71,0,0,1,461,19.34c1.82,1.82,2.71,4.43,2.71,7.91V40.82h-8.31V28.62c0-3.19-1.27-4.85-3.84-4.85a4.33,4.33,0,0,0-3.43,1.42,6,6,0,0,0-1.28,4.18V40.82h-8.31V17.12h7.91v2.6a9.31,9.31,0,0,1,3.35-2.2A10.3,10.3,0,0,1,454,16.72Z" style="fill:none;stroke:#231f20;stroke-miterlimit:10"/><polygon points="493.89 29.72 490.65 33.15 490.65 40.82 482.09 40.82 482.09 10.23 490.65 10.23 490.65 22.93 502.44 10.23 511.93 10.23 499.49 23.77 512.63 40.82 502.55 40.82 493.89 29.72" style="fill:none;stroke:#231f20;stroke-miterlimit:10"/><rect x="514.1" y="17.12" width="8.31" height="23.7" style="fill:none;stroke:#231f20;stroke-miterlimit:10"/><path d="M518.28,14.52a5.31,5.31,0,0,1-3.73-1.28,4.21,4.21,0,0,1,0-6.25,5.55,5.55,0,0,1,3.73-1.28,5.17,5.17,0,0,1,3.65,1.18A3.85,3.85,0,0,1,523.3,10a4.14,4.14,0,0,1-1.37,3.25A5,5,0,0,1,518.28,14.52Z" style="fill:none;stroke:#231f20;stroke-miterlimit:10"/><path d="M544.1,39.85a9.42,9.42,0,0,1-2.5,1,16.53,16.53,0,0,1-3.3.3c-3,0-5.41-.73-7.09-2.21s-2.45-3.8-2.45-6.8v-8h-3.5V18h3.5V11.92H537V18h5.46V24.2H537v7.88a2.67,2.67,0,0,0,.64,2,2.39,2.39,0,0,0,1.87.79A4.39,4.39,0,0,0,542,34Z" style="fill:none;stroke:#231f20;stroke-miterlimit:10"/><path d="M136.38,55.93,140.31,67l3.84-11.05h4.13v15.2h-3.09V67l.29-7.13-4.14,11.28h-2.1l-4.15-11.28.3,7.13v4.15h-3.14V55.93ZM160.82,68H155.3l-1.07,3.11h-3.3l5.66-15.2h2.89l5.66,15.2h-3.3l-1-3.11Zm-4.67-2.55h3.79l-1.88-5.71-1.91,5.71ZM172.37,65l-1.66,1.77v4.34h-3.16V55.93h3.16v6.92l1.42-1.91,3.89-5h3.83l-5.46,6.78L180,71.13h-3.7L172.37,65Zm19-.54h-6.08v4.08h7.07v2.57H182.21V55.93h10.18v2.55h-7.07v3.59h6.08v2.41Zm14.37-1.71L209,55.93h3.44l-5.05,9.73v5.47h-3.11V65.66l-5.06-9.73h3.43l3.16,6.84ZM227,63.84a8.64,8.64,0,0,1-.85,4,6.44,6.44,0,0,1-9,2.6,5.72,5.72,0,0,1-2.32-2.6A7.9,7.9,0,0,1,214,64v-.8a8.35,8.35,0,0,1,.83-3.94,5.41,5.41,0,0,1,2.27-2.6,6.12,6.12,0,0,1,3.35-1,6,6,0,0,1,3.38,1,5,5,0,0,1,2.31,2.6A8.35,8.35,0,0,1,227,63.2v.64Zm-3.21-.69a6.32,6.32,0,0,0-.83-3.63,2.84,2.84,0,0,0-2.5-1.23A2.77,2.77,0,0,0,218,59.52a6.31,6.31,0,0,0-.85,3.63v.69a6.2,6.2,0,0,0,.85,3.64,3.07,3.07,0,0,0,4.91.09,6.29,6.29,0,0,0,.83-3.62v-.8Zm18-7.22V66a5.55,5.55,0,0,1-1.58,4,6.32,6.32,0,0,1-4.29,1.37A6,6,0,0,1,231.69,70a5,5,0,0,1-1.63-3.85V55.93h3.15V66a3,3,0,0,0,.68,2.17,3.11,3.11,0,0,0,2,.72c1.77,0,2.68-1,2.68-2.84V55.93Zm9.14,9.63h-2.52v5.57h-3.14V55.93H251a6.13,6.13,0,0,1,4.13,1.21,4.12,4.12,0,0,1,1.48,3.41,4.37,4.37,0,0,1-.7,2.55,3.85,3.85,0,0,1-2.06,1.63L257.16,71v.11h-3.41l-2.84-5.57ZM248.39,63H251a3,3,0,0,0,1.88-.54,2.85,2.85,0,0,0,.62-1.68,3,3,0,0,0-.62-1.72,2.6,2.6,0,0,0-1.88-.59h-2.57V63Zm28.73,3.73,2.07-10.81h3.1l-3.35,15.2h-3.15L273.29,61l-2.46,10.13h-3.14l-3.4-15.2h3.14l2,10.81L272,55.93h2.71l2.46,10.81Zm17.06-2.26h-6v4.08h7.08v2.57H285V55.93h10.24v2.55h-7.08v3.59h6v2.41ZM298,71.13V55.93h5.36a7,7,0,0,1,4.13,1A3.8,3.8,0,0,1,309,60.11a3.53,3.53,0,0,1-.59,2,3.42,3.42,0,0,1-1.58,1.29,3.92,3.92,0,0,1,1.88,1.12,3.7,3.7,0,0,1,.64,2.17A4,4,0,0,1,307.9,70a5.74,5.74,0,0,1-4,1.15Zm3.09-6.65v4.08h2.7a2.3,2.3,0,0,0,1.72-.49,1.61,1.61,0,0,0,.64-1.42c0-1.39-.69-2.06-2.17-2.17Zm0-2.17h2.36c1.57-.05,2.35-.69,2.35-1.9a1.52,1.52,0,0,0-.64-1.48,2.85,2.85,0,0,0-1.8-.45h-2.27v3.83Zm19.48,4.88a1.65,1.65,0,0,0-.64-1.42,10.45,10.45,0,0,0-2.22-1,10.5,10.5,0,0,1-2.61-1A4.12,4.12,0,0,1,312.58,60a3.37,3.37,0,0,1,.68-2.17,4.54,4.54,0,0,1,2-1.53,7.15,7.15,0,0,1,2.95-.59,6.57,6.57,0,0,1,2.84.64A4.86,4.86,0,0,1,323,58a4.32,4.32,0,0,1,.7,2.42H320.6a2,2,0,0,0-.64-1.58,2.74,2.74,0,0,0-1.83-.59,3.18,3.18,0,0,0-1.82.43,1.63,1.63,0,0,0-.64,1.29,1.55,1.55,0,0,0,.75,1.28,9.33,9.33,0,0,0,2.2,1,8.89,8.89,0,0,1,3.89,2,3.8,3.8,0,0,1,1.23,3,3.65,3.65,0,0,1-1.48,3.1,7.13,7.13,0,0,1-4,1.08,7.55,7.55,0,0,1-3.21-.64,5.37,5.37,0,0,1-2.2-1.72,4.69,4.69,0,0,1-.8-2.6h3.21c0,1.66,1,2.49,3,2.49a2.66,2.66,0,0,0,1.72-.48,1.3,1.3,0,0,0,.64-1.18Zm9.57,3.94H327V55.93h3.14v15.2Zm15.17-12.65h-4.69V71.13h-3.14V58.48h-4.58V55.93h12.41v2.55Zm11.93,6h-6.09v4.08h7.08v2.57H348.08V55.93h10.18v2.55h-7.08v3.59h6.09v2.41Zm13.19-8.55,4,11.05,3.83-11.05h4.13v15.2h-3.16V67l.35-7.13-4.13,11.28h-2.12l-4.18-11.28.35,7.13v4.15h-3.14V55.93Zm28.17,7.91a8.64,8.64,0,0,1-.83,4,5.91,5.91,0,0,1-2.26,2.6,5.81,5.81,0,0,1-3.35.89,5.89,5.89,0,0,1-3.4-.89,5.41,5.41,0,0,1-2.3-2.6,7.9,7.9,0,0,1-.84-3.83v-.8a8.35,8.35,0,0,1,.84-3.94,5.08,5.08,0,0,1,2.27-2.6,6.1,6.1,0,0,1,3.33-1,6,6,0,0,1,3.4,1,5.06,5.06,0,0,1,2.31,2.6,8.35,8.35,0,0,1,.83,3.94v.64Zm-3.19-.69a6.32,6.32,0,0,0-.83-3.63,2.85,2.85,0,0,0-2.52-1.23,2.8,2.8,0,0,0-2.41,1.23,6.32,6.32,0,0,0-.83,3.63v.69a6.21,6.21,0,0,0,.83,3.64,2.91,2.91,0,0,0,2.51,1.27,2.87,2.87,0,0,0,2.42-1.18,6.29,6.29,0,0,0,.83-3.62v-.8Zm12.06,2.41H405v5.57h-3.16V55.93h5.71a6.19,6.19,0,0,1,4.13,1.21,4.27,4.27,0,0,1,1.48,3.41,4.17,4.17,0,0,1-.73,2.55,4.11,4.11,0,0,1-2,1.63l3.3,6.29v.11h-3.35l-2.89-5.57ZM405,63h2.55a2.71,2.71,0,0,0,1.82-.54,2.44,2.44,0,0,0,.65-1.68,2.56,2.56,0,0,0-.65-1.72,2.49,2.49,0,0,0-1.82-.59H405V63Zm20.75,1.47h-6.09v4.08h7.08v2.57H416.59V55.93h10.18v2.55h-7.08v3.59h6.09v2.41Zm18.29,0h-6v4.08h7.08v2.57H434.87V55.93h10.24v2.55H438v3.59h6v2.41ZM456.52,68h-5.46L450,71.13h-3.35l5.71-15.2h2.85l5.7,15.2h-3.34l-1-3.11Zm-4.63-2.55h3.75l-1.88-5.71-1.87,5.71Zm19.33,1.72a1.59,1.59,0,0,0-.65-1.42,9.3,9.3,0,0,0-2.25-1,10.26,10.26,0,0,1-2.6-1A4.12,4.12,0,0,1,463.15,60a3.2,3.2,0,0,1,.74-2.17,4.45,4.45,0,0,1,2-1.53,7,7,0,0,1,2.94-.59,6.81,6.81,0,0,1,2.87.64,4.77,4.77,0,0,1,2,1.68,4.39,4.39,0,0,1,.69,2.42h-3.1a1.9,1.9,0,0,0-.65-1.58,2.65,2.65,0,0,0-1.85-.59,3,3,0,0,0-1.77.43,1.57,1.57,0,0,0-.64,1.29,1.52,1.52,0,0,0,.67,1.28,10.84,10.84,0,0,0,2.28,1,8.79,8.79,0,0,1,3.88,2,4.18,4.18,0,0,1-.24,6,8.19,8.19,0,0,1-7.24.44A5.54,5.54,0,0,1,463.41,69a4.73,4.73,0,0,1-.75-2.6h3.2c0,1.66.93,2.49,3,2.49a2.65,2.65,0,0,0,1.71-.48,1.25,1.25,0,0,0,.65-1.18Zm11.52-4.42,3.14-6.84h3.48l-5.06,9.73v5.47h-3.14V65.66l-5-9.73h3.44Z" style="fill:#231f20;fill-rule:evenodd"/><polygon points="136.38 55.93 140.31 66.98 144.15 55.93 148.28 55.93 148.28 71.13 145.19 71.13 145.19 66.98 145.48 59.85 141.34 71.13 139.24 71.13 135.09 59.85 135.39 66.98 135.39 71.13 132.25 71.13 132.25 55.93 136.38 55.93" style="fill:none;stroke:#231f20;stroke-miterlimit:10"/><polygon points="160.82 68.02 155.3 68.02 154.23 71.13 150.93 71.13 156.59 55.93 159.48 55.93 165.14 71.13 161.84 71.13 160.82 68.02" style="fill:none;stroke:#231f20;stroke-miterlimit:10"/><polygon points="156.15 65.47 159.94 65.47 158.06 59.76 156.15 65.47" style="fill:none;stroke:#231f20;stroke-miterlimit:10"/><polygon points="172.37 65.02 170.71 66.79 170.71 71.13 167.55 71.13 167.55 55.93 170.71 55.93 170.71 62.85 172.13 60.94 176.02 55.93 179.85 55.93 174.39 62.71 179.96 71.13 176.26 71.13 172.37 65.02" style="fill:none;stroke:#231f20;stroke-miterlimit:10"/><polygon points="191.41 64.48 185.32 64.48 185.32 68.56 192.39 68.56 192.39 71.13 182.21 71.13 182.21 55.93 192.39 55.93 192.39 58.48 185.32 58.48 185.32 62.07 191.41 62.07 191.41 64.48" style="fill:none;stroke:#231f20;stroke-miterlimit:10"/><polygon points="205.77 62.77 208.96 55.93 212.4 55.93 207.35 65.66 207.35 71.13 204.24 71.13 204.24 65.66 199.18 55.93 202.61 55.93 205.77 62.77" style="fill:none;stroke:#231f20;stroke-miterlimit:10"/><path d="M227,63.84a8.64,8.64,0,0,1-.85,4,6.44,6.44,0,0,1-9,2.6,5.72,5.72,0,0,1-2.32-2.6A7.9,7.9,0,0,1,214,64v-.8a8.35,8.35,0,0,1,.83-3.94,5.41,5.41,0,0,1,2.27-2.6,6.12,6.12,0,0,1,3.35-1,6,6,0,0,1,3.38,1,5,5,0,0,1,2.31,2.6A8.35,8.35,0,0,1,227,63.2Z" style="fill:none;stroke:#231f20;stroke-miterlimit:10"/><path d="M223.76,63.15a6.32,6.32,0,0,0-.83-3.63,2.84,2.84,0,0,0-2.5-1.23A2.77,2.77,0,0,0,218,59.52a6.31,6.31,0,0,0-.85,3.63v.69a6.2,6.2,0,0,0,.85,3.64,3.07,3.07,0,0,0,4.91.09,6.29,6.29,0,0,0,.83-3.62Z" style="fill:none;stroke:#231f20;stroke-miterlimit:10"/><path d="M241.77,55.93V66a5.55,5.55,0,0,1-1.58,4,6.32,6.32,0,0,1-4.29,1.37A6,6,0,0,1,231.69,70a5,5,0,0,1-1.63-3.85V55.93h3.15V66a3,3,0,0,0,.68,2.17,3.11,3.11,0,0,0,2,.72c1.77,0,2.68-1,2.68-2.84V55.93Z" style="fill:none;stroke:#231f20;stroke-miterlimit:10"/><path d="M250.91,65.56h-2.52v5.57h-3.14V55.93H251a6.13,6.13,0,0,1,4.13,1.21,4.12,4.12,0,0,1,1.48,3.41,4.37,4.37,0,0,1-.7,2.55,3.85,3.85,0,0,1-2.06,1.63L257.16,71v.11h-3.41Z" style="fill:none;stroke:#231f20;stroke-miterlimit:10"/><path d="M248.39,63H251a3,3,0,0,0,1.88-.54,2.85,2.85,0,0,0,.62-1.68,3,3,0,0,0-.62-1.72,2.6,2.6,0,0,0-1.88-.59h-2.57Z" style="fill:none;stroke:#231f20;stroke-miterlimit:10"/><polygon points="277.12 66.74 279.19 55.93 282.29 55.93 278.94 71.13 275.79 71.13 273.29 61 270.83 71.13 267.69 71.13 264.29 55.93 267.43 55.93 269.45 66.74 271.95 55.93 274.66 55.93 277.12 66.74" style="fill:none;stroke:#231f20;stroke-miterlimit:10"/><polygon points="294.18 64.48 288.14 64.48 288.14 68.56 295.22 68.56 295.22 71.13 284.98 71.13 284.98 55.93 295.22 55.93 295.22 58.48 288.14 58.48 288.14 62.07 294.18 62.07 294.18 64.48" style="fill:none;stroke:#231f20;stroke-miterlimit:10"/><path d="M298,71.13V55.93h5.36a7,7,0,0,1,4.13,1A3.8,3.8,0,0,1,309,60.11a3.53,3.53,0,0,1-.59,2,3.42,3.42,0,0,1-1.58,1.29,3.92,3.92,0,0,1,1.88,1.12,3.7,3.7,0,0,1,.64,2.17A4,4,0,0,1,307.9,70a5.74,5.74,0,0,1-4,1.15Z" style="fill:none;stroke:#231f20;stroke-miterlimit:10"/><path d="M301.12,64.48v4.08h2.7a2.3,2.3,0,0,0,1.72-.49,1.61,1.61,0,0,0,.64-1.42c0-1.39-.69-2.06-2.17-2.17Z" style="fill:none;stroke:#231f20;stroke-miterlimit:10"/><path d="M301.12,62.31h2.36c1.57-.05,2.35-.69,2.35-1.9a1.52,1.52,0,0,0-.64-1.48,2.85,2.85,0,0,0-1.8-.45h-2.27Z" style="fill:none;stroke:#231f20;stroke-miterlimit:10"/><path d="M320.6,67.19a1.65,1.65,0,0,0-.64-1.42,10.45,10.45,0,0,0-2.22-1,10.5,10.5,0,0,1-2.61-1A4.12,4.12,0,0,1,312.58,60a3.37,3.37,0,0,1,.68-2.17,4.54,4.54,0,0,1,2-1.53,7.15,7.15,0,0,1,2.95-.59,6.57,6.57,0,0,1,2.84.64A4.86,4.86,0,0,1,323,58a4.32,4.32,0,0,1,.7,2.42H320.6a2,2,0,0,0-.64-1.58,2.74,2.74,0,0,0-1.83-.59,3.18,3.18,0,0,0-1.82.43,1.63,1.63,0,0,0-.64,1.29,1.55,1.55,0,0,0,.75,1.28,9.33,9.33,0,0,0,2.2,1,8.89,8.89,0,0,1,3.89,2,3.8,3.8,0,0,1,1.23,3,3.65,3.65,0,0,1-1.48,3.1,7.13,7.13,0,0,1-4,1.08,7.55,7.55,0,0,1-3.21-.64,5.37,5.37,0,0,1-2.2-1.72,4.69,4.69,0,0,1-.8-2.6h3.21c0,1.66,1,2.49,3,2.49a2.66,2.66,0,0,0,1.72-.48A1.3,1.3,0,0,0,320.6,67.19Z" style="fill:none;stroke:#231f20;stroke-miterlimit:10"/><rect x="327.03" y="55.93" width="3.14" height="15.2" style="fill:none;stroke:#231f20;stroke-miterlimit:10"/><polygon points="345.34 58.48 340.65 58.48 340.65 71.13 337.51 71.13 337.51 58.48 332.93 58.48 332.93 55.93 345.34 55.93 345.34 58.48" style="fill:none;stroke:#231f20;stroke-miterlimit:10"/><polygon points="357.27 64.48 351.18 64.48 351.18 68.56 358.26 68.56 358.26 71.13 348.08 71.13 348.08 55.93 358.26 55.93 358.26 58.48 351.18 58.48 351.18 62.07 357.27 62.07 357.27 64.48" style="fill:none;stroke:#231f20;stroke-miterlimit:10"/><polygon points="370.46 55.93 374.45 66.98 378.28 55.93 382.41 55.93 382.41 71.13 379.25 71.13 379.25 66.98 379.6 59.85 375.47 71.13 373.35 71.13 369.17 59.85 369.52 66.98 369.52 71.13 366.38 71.13 366.38 55.93 370.46 55.93" style="fill:none;stroke:#231f20;stroke-miterlimit:10"/><path d="M398.63,63.84a8.64,8.64,0,0,1-.83,4,5.91,5.91,0,0,1-2.26,2.6,5.81,5.81,0,0,1-3.35.89,5.89,5.89,0,0,1-3.4-.89,5.41,5.41,0,0,1-2.3-2.6,7.9,7.9,0,0,1-.84-3.83v-.8a8.35,8.35,0,0,1,.84-3.94,5.08,5.08,0,0,1,2.27-2.6,6.1,6.1,0,0,1,3.33-1,6,6,0,0,1,3.4,1,5.06,5.06,0,0,1,2.31,2.6,8.35,8.35,0,0,1,.83,3.94Z" style="fill:none;stroke:#231f20;stroke-miterlimit:10"/><path d="M395.44,63.15a6.32,6.32,0,0,0-.83-3.63,2.85,2.85,0,0,0-2.52-1.23,2.8,2.8,0,0,0-2.41,1.23,6.32,6.32,0,0,0-.83,3.63v.69a6.21,6.21,0,0,0,.83,3.64,2.91,2.91,0,0,0,2.51,1.27,2.87,2.87,0,0,0,2.42-1.18,6.29,6.29,0,0,0,.83-3.62Z" style="fill:none;stroke:#231f20;stroke-miterlimit:10"/><path d="M407.5,65.56H405v5.57h-3.16V55.93h5.71a6.19,6.19,0,0,1,4.13,1.21,4.27,4.27,0,0,1,1.48,3.41,4.17,4.17,0,0,1-.73,2.55,4.11,4.11,0,0,1-2,1.63l3.3,6.29v.11h-3.35Z" style="fill:none;stroke:#231f20;stroke-miterlimit:10"/><path d="M405,63h2.55a2.71,2.71,0,0,0,1.82-.54,2.44,2.44,0,0,0,.65-1.68,2.56,2.56,0,0,0-.65-1.72,2.49,2.49,0,0,0-1.82-.59H405Z" style="fill:none;stroke:#231f20;stroke-miterlimit:10"/><polygon points="425.78 64.48 419.69 64.48 419.69 68.56 426.77 68.56 426.77 71.13 416.59 71.13 416.59 55.93 426.77 55.93 426.77 58.48 419.69 58.48 419.69 62.07 425.78 62.07 425.78 64.48" style="fill:none;stroke:#231f20;stroke-miterlimit:10"/><polygon points="444.07 64.48 438.03 64.48 438.03 68.56 445.11 68.56 445.11 71.13 434.87 71.13 434.87 55.93 445.11 55.93 445.11 58.48 438.03 58.48 438.03 62.07 444.07 62.07 444.07 64.48" style="fill:none;stroke:#231f20;stroke-miterlimit:10"/><polygon points="456.52 68.02 451.06 68.02 449.98 71.13 446.63 71.13 452.34 55.93 455.19 55.93 460.89 71.13 457.55 71.13 456.52 68.02" style="fill:none;stroke:#231f20;stroke-miterlimit:10"/><polygon points="451.89 65.47 455.64 65.47 453.76 59.76 451.89 65.47" style="fill:none;stroke:#231f20;stroke-miterlimit:10"/><path d="M471.22,67.19a1.59,1.59,0,0,0-.65-1.42,9.3,9.3,0,0,0-2.25-1,10.26,10.26,0,0,1-2.6-1A4.12,4.12,0,0,1,463.15,60a3.2,3.2,0,0,1,.74-2.17,4.45,4.45,0,0,1,2-1.53,7,7,0,0,1,2.94-.59,6.81,6.81,0,0,1,2.87.64,4.77,4.77,0,0,1,2,1.68,4.39,4.39,0,0,1,.69,2.42h-3.1a1.9,1.9,0,0,0-.65-1.58,2.65,2.65,0,0,0-1.85-.59,3,3,0,0,0-1.77.43,1.57,1.57,0,0,0-.64,1.29,1.52,1.52,0,0,0,.67,1.28,10.84,10.84,0,0,0,2.28,1,8.79,8.79,0,0,1,3.88,2,4.18,4.18,0,0,1-.24,6,8.19,8.19,0,0,1-7.24.44A5.54,5.54,0,0,1,463.41,69a4.73,4.73,0,0,1-.75-2.6h3.2c0,1.66.93,2.49,3,2.49a2.65,2.65,0,0,0,1.71-.48A1.25,1.25,0,0,0,471.22,67.19Z" style="fill:none;stroke:#231f20;stroke-miterlimit:10"/><polygon points="482.74 62.77 485.88 55.93 489.36 55.93 484.3 65.66 484.3 71.13 481.16 71.13 481.16 65.66 476.14 55.93 479.58 55.93 482.74 62.77" style="fill:none;stroke:#231f20;stroke-miterlimit:10"/></svg>